<svg width="20" height="20" viewBox="0 0 20 20" fill="none" xmlns="http://www.w3.org/2000/svg">
<path d="M3.95831 14.5V5.5C3.95831 4.25 4.49165 3.75 5.81665 3.75H6.68331C8.00831 3.75 8.54165 4.25 8.54165 5.5V14.5C8.54165 15.75 8.00831 16.25 6.68331 16.25H5.81665C4.49165 16.25 3.95831 15.75 3.95831 14.5Z" stroke="#15181A" stroke-width="1.5" stroke-linecap="round" stroke-linejoin="round"/>
<path d="M11.0417 12.8334V7.16675C11.0417 5.91675 11.575 5.41675 12.9 5.41675H13.7667C15.0917 5.41675 15.625 5.91675 15.625 7.16675V12.8334C15.625 14.0834 15.0917 14.5834 13.7667 14.5834H12.9C11.575 14.5834 11.0417 14.0834 11.0417 12.8334Z" stroke="#15181A" stroke-width="1.5" stroke-linecap="round" stroke-linejoin="round"/>
<path d="M1.66669 10H3.66669" stroke="#15181A" stroke-width="1.5" stroke-linecap="round" stroke-linejoin="round"/>
<path d="M9.16669 10H10.8334" stroke="#15181A" stroke-width="1.5" stroke-linecap="round" stroke-linejoin="round"/>
<path d="M18.3333 10H16.0917" stroke="#15181A" stroke-width="1.5" stroke-linecap="round" stroke-linejoin="round"/>
</svg>
