<svg width="6" height="10" viewBox="0 0 6 10" fill="none" xmlns="http://www.w3.org/2000/svg">
<path d="M2 0.999904C2 1.55211 1.55232 2 1.0001 2C0.4477 2 0 1.55213 0 0.999904C0 0.447676 0.44768 0 1.0001 0C1.5523 0 2 0.44768 2 0.999904Z" fill="#15181A"/>
<path d="M6 0.999904C6 1.55211 5.55232 2 4.9999 2C4.4477 2 4 1.55213 4 0.999904C4 0.447676 4.44768 0 4.9999 0C5.5523 0 6 0.44768 6 0.999904Z" fill="#15181A"/>
<path d="M2 5C2 5.55226 1.55232 6 1.0001 6C0.4477 6 0 5.55228 0 5C0 4.44772 0.44768 4 1.0001 4C1.5523 4 2 4.44772 2 5Z" fill="#15181A"/>
<path d="M6 5C6 5.55226 5.55232 6 4.9999 6C4.4477 6 4 5.55228 4 5C4 4.44772 4.44768 4 4.9999 4C5.5523 4 6 4.44772 6 5Z" fill="#15181A"/>
<path d="M2 9.0001C2 9.5523 1.55232 10 1.0001 10C0.4477 10 0 9.55232 0 9.0001C0 8.44787 0.44768 8 1.0001 8C1.5523 8 2 8.44787 2 9.0001Z" fill="#15181A"/>
<path d="M6 9.0001C6 9.5523 5.55232 10 4.9999 10C4.4477 10 4 9.55232 4 9.0001C4 8.44787 4.44768 8 4.9999 8C5.5523 8 6 8.44787 6 9.0001Z" fill="#15181A"/>
</svg>
