<svg width="36" height="36" viewBox="0 0 36 36" fill="none" xmlns="http://www.w3.org/2000/svg">
<path d="M18 36C8.0625 36 0 27.9375 0 18C0 8.0625 8.0625 0 18 0C27.9375 0 36 8.0625 36 18C36 27.9375 27.9375 36 18 36ZM18 1.9875C9.1875 1.9875 1.9875 9.1875 1.9875 18C1.9875 26.8125 9.1875 34.0125 18 34.0125C26.8125 34.0125 34.0125 26.8125 34.0125 18C34.0125 9.1875 26.8125 1.9875 18 1.9875Z" fill="#10B77F"/>
<path d="M16.05 22.8751C15.7873 22.8751 15.525 22.7626 15.3374 22.575L11.5126 18.75C11.1375 18.3749 11.0627 17.7374 11.4001 17.3625C11.7752 16.9126 12.4501 16.875 12.8626 17.2875L16.0503 20.4751H16.0877L23.1752 13.3876C23.5503 13.0125 24.1501 12.9377 24.5626 13.2751C25.0125 13.6502 25.0502 14.3251 24.6377 14.7376L16.7627 22.6126C16.5751 22.7999 16.3127 22.875 16.0501 22.875L16.05 22.8751Z" fill="#10B77F"/>
</svg>
