<svg width="47" height="38" viewBox="0 0 47 38" fill="none" xmlns="http://www.w3.org/2000/svg">
<path d="M32 27L24 19L16 27" stroke="#899194" stroke-width="2" stroke-linecap="round" stroke-linejoin="round"/>
<path d="M24 19V37" stroke="#899194" stroke-width="2" stroke-linecap="round" stroke-linejoin="round"/>
<path d="M40.78 31.78C42.7307 30.7165 44.2717 29.0338 45.1597 26.9973C46.0478 24.9607 46.2324 22.6865 45.6844 20.5334C45.1364 18.3803 43.887 16.471 42.1333 15.1069C40.3797 13.7428 38.2217 13.0015 36 13H33.48C32.8746 10.6585 31.7463 8.48467 30.1799 6.64199C28.6135 4.7993 26.6497 3.3357 24.4362 2.36121C22.2227 1.38673 19.8171 0.926716 17.4002 1.01576C14.9834 1.10481 12.6181 1.7406 10.4823 2.87533C8.34657 4.01006 6.49582 5.6142 5.06924 7.56716C3.64266 9.52012 2.67738 11.7711 2.24596 14.1508C1.81454 16.5305 1.92821 18.9771 2.57842 21.3065C3.22864 23.636 4.39848 25.7877 6 27.6" stroke="#899194" stroke-width="2" stroke-linecap="round" stroke-linejoin="round"/>
<path d="M32 27L24 19L16 27" stroke="#899194" stroke-width="2" stroke-linecap="round" stroke-linejoin="round"/>
</svg>
