<svg width="9" height="9" viewBox="0 0 9 9" fill="none" xmlns="http://www.w3.org/2000/svg">
<path d="M5.62664 4.00001L8.86664 0.760014C8.93945 0.674991 8.9775 0.565624 8.97318 0.453768C8.96886 0.341912 8.92249 0.235806 8.84334 0.156653C8.76418 0.0775 8.65808 0.0311298 8.54622 0.0268093C8.43436 0.0224888 8.325 0.0605361 8.23997 0.133348L4.99997 3.37335L1.75997 0.128903C1.67495 0.0560916 1.56558 0.0180446 1.45373 0.0223652C1.34187 0.0266857 1.23577 0.0730554 1.15661 0.152209C1.07746 0.231362 1.03109 0.337468 1.02677 0.449324C1.02245 0.56118 1.0605 0.670547 1.13331 0.75557L4.37331 4.00001L1.12886 7.24001C1.08234 7.27986 1.04455 7.32889 1.01787 7.38403C0.991198 7.43917 0.976206 7.49923 0.973842 7.56043C0.971478 7.62164 0.981791 7.68268 1.00414 7.73971C1.02648 7.79675 1.06037 7.84855 1.10369 7.89186C1.147 7.93517 1.1988 7.96906 1.25583 7.99141C1.31286 8.01375 1.3739 8.02407 1.43511 8.0217C1.49632 8.01934 1.55638 8.00435 1.61152 7.97767C1.66666 7.95099 1.71569 7.91321 1.75553 7.86668L4.99997 4.62668L8.23997 7.86668C8.325 7.93949 8.43436 7.97754 8.54622 7.97322C8.65808 7.9689 8.76418 7.92253 8.84334 7.84338C8.92249 7.76422 8.96886 7.65812 8.97318 7.54626C8.9775 7.4344 8.93945 7.32504 8.86664 7.24001L5.62664 4.00001Z" fill="#F6F8F8"/>
</svg>
